<svg width="128" height="33" viewBox="0 0 128 33" fill="none" xmlns="http://www.w3.org/2000/svg">
<path d="M4.65265 26C3.36065 26 2.37465 25.728 1.66065 25.184C0.946648 24.64 0.606648 23.892 0.606648 22.906V1.52H9.71865C12.0306 1.52 14.0366 2.03 15.7366 3.016C17.4366 4.002 18.7286 5.396 19.6466 7.232C20.5306 9.068 21.0066 11.244 21.0066 13.76C21.0066 16.276 20.5306 18.452 19.6466 20.288C18.7626 22.124 17.4706 23.552 15.7706 24.538C14.0706 25.524 12.0986 26 9.82065 26H4.65265ZM9.71865 21.648C11.5546 21.648 12.9486 20.968 13.9686 19.608C14.9546 18.248 15.4646 16.276 15.4646 13.76C15.4646 11.244 14.9546 9.306 13.9346 7.946C12.9146 6.586 11.4526 5.872 9.61665 5.872H6.04665V21.648H9.71865ZM24.2685 2.914L26.6485 0.398002L29.1645 2.472C29.4365 2.744 29.5725 3.016 29.5725 3.322C29.5725 3.628 29.4365 3.934 29.1645 4.24L26.7845 6.756L24.2685 4.682C23.9965 4.478 23.8605 4.172 23.8605 3.832C23.8605 3.56 23.9965 3.254 24.2685 2.914ZM24.0645 8.15H29.4025V25.66C29.1305 25.796 28.7905 25.932 28.3825 26C27.9745 26.068 27.5665 26.102 27.1925 26.102C26.1725 26.102 25.3905 25.864 24.8465 25.32C24.3025 24.776 24.0645 24.028 24.0645 23.008V8.15ZM49.2585 10.36C48.8505 10.768 48.3065 10.972 47.6265 10.972C47.2185 10.972 46.7425 10.904 46.1645 10.7C46.5725 11.04 46.8785 11.516 47.1165 12.094C47.3205 12.706 47.4565 13.386 47.4565 14.134C47.4565 16.004 46.7765 17.432 45.4165 18.452C44.0565 19.472 42.0505 20.05 39.4665 20.186C39.0925 20.22 38.7525 20.322 38.4125 20.458C38.0725 20.628 37.9365 20.866 37.9365 21.172C37.9365 21.716 38.3785 21.954 39.2965 21.954H43.4105C45.1445 21.954 46.4705 22.362 47.3545 23.144C48.2385 23.926 48.6805 25.048 48.6805 26.544C48.6805 27.768 48.2725 28.822 47.4905 29.74C46.6745 30.658 45.5525 31.372 44.0905 31.848C42.6285 32.358 40.9285 32.596 38.9905 32.596C36.8485 32.596 35.2165 32.324 34.0945 31.746C32.9385 31.168 32.3945 30.386 32.3945 29.366C32.3945 28.516 32.6665 27.904 33.2785 27.53C33.8905 27.19 34.7405 26.952 35.8965 26.816C35.8285 27.054 35.8285 27.258 35.8285 27.428C35.8285 28.176 36.1005 28.686 36.6445 29.026C37.1885 29.366 38.0725 29.536 39.2965 29.536C40.7245 29.536 41.7445 29.366 42.3905 28.992C43.0025 28.652 43.3425 28.176 43.3425 27.564C43.3425 26.986 43.1385 26.612 42.7985 26.442C42.4585 26.306 41.9485 26.204 41.3025 26.204H37.3925C36.1685 26.204 35.1825 26 34.4685 25.558C33.7545 25.15 33.4145 24.47 33.4145 23.518C33.4145 21.886 34.6385 20.662 37.1205 19.88C35.4545 19.506 34.1625 18.826 33.2785 17.84C32.3945 16.854 31.9525 15.63 31.9525 14.134C31.9525 12.91 32.2585 11.788 32.9385 10.836C33.5845 9.884 34.5025 9.136 35.7265 8.592C36.9165 8.082 38.3105 7.81 39.9085 7.81C40.7925 7.81 41.6085 7.912 42.4245 8.048C43.1045 8.15 43.5805 8.184 43.9205 8.184C44.9065 8.184 45.8245 8.014 46.6745 7.606C47.5245 7.232 48.1025 6.722 48.4425 6.076C48.8505 6.314 49.1905 6.654 49.4625 7.13C49.7345 7.606 49.8705 8.116 49.8705 8.66C49.8705 9.408 49.6665 9.952 49.2585 10.36ZM42.1865 14.1C42.1865 13.148 41.9485 12.434 41.5405 11.958C41.0985 11.482 40.4865 11.21 39.7045 11.21C38.8885 11.21 38.2425 11.448 37.8345 11.924C37.4265 12.4 37.2225 13.114 37.2225 14.032C37.2225 14.984 37.4265 15.698 37.8345 16.174C38.2425 16.65 38.8885 16.888 39.7045 16.888C41.3365 16.888 42.1865 15.97 42.1865 14.1ZM52.292 2.914L54.672 0.398002L57.188 2.472C57.46 2.744 57.596 3.016 57.596 3.322C57.596 3.628 57.46 3.934 57.188 4.24L54.808 6.756L52.292 4.682C52.02 4.478 51.884 4.172 51.884 3.832C51.884 3.56 52.02 3.254 52.292 2.914ZM52.088 8.15H57.426V25.66C57.154 25.796 56.814 25.932 56.406 26C55.998 26.068 55.59 26.102 55.216 26.102C54.196 26.102 53.414 25.864 52.87 25.32C52.326 24.776 52.088 24.028 52.088 23.008V8.15ZM62.5828 25.456C62.0388 24.912 61.7668 24.164 61.7668 23.144V1.52H78.5968V2.948C78.5968 3.934 78.3248 4.682 77.8488 5.158C77.3728 5.634 76.5908 5.872 75.5028 5.872H67.2068V11.822H77.2028V13.216C77.2028 14.202 76.9308 14.916 76.4548 15.392C75.9788 15.868 75.1968 16.106 74.1088 16.106H67.2068V25.796C66.9348 25.932 66.5948 26.068 66.1868 26.136C65.7788 26.204 65.3708 26.238 64.9968 26.238C63.9428 26.238 63.1268 26 62.5828 25.456ZM81.1455 2.914L83.5255 0.398002L86.0415 2.472C86.3135 2.744 86.4495 3.016 86.4495 3.322C86.4495 3.628 86.3135 3.934 86.0415 4.24L83.6615 6.756L81.1455 4.682C80.8735 4.478 80.7375 4.172 80.7375 3.832C80.7375 3.56 80.8735 3.254 81.1455 2.914ZM80.9415 8.15H86.2795V25.66C86.0075 25.796 85.6675 25.932 85.2595 26C84.8515 26.068 84.4435 26.102 84.0695 26.102C83.0495 26.102 82.2675 25.864 81.7235 25.32C81.1795 24.776 80.9415 24.028 80.9415 23.008V8.15ZM104.832 9.544C105.886 10.7 106.43 12.264 106.43 14.236V26H101.126V15.46C101.126 14.27 100.888 13.386 100.446 12.774C99.9703 12.196 99.2903 11.89 98.3723 11.89C97.4543 11.89 96.7063 12.196 96.1283 12.74C95.5503 13.318 95.2783 14.066 95.2783 14.95V26H89.9403V8.49C90.5183 8.218 91.2663 8.048 92.1503 8.048C93.1023 8.048 93.8843 8.354 94.4283 8.898C94.9723 9.442 95.2443 10.19 95.2443 11.108V11.142C95.6523 10.088 96.3323 9.272 97.2503 8.694C98.1683 8.116 99.2563 7.81 100.48 7.81C102.316 7.81 103.744 8.388 104.832 9.544ZM126.041 0.636001C126.449 0.704002 126.789 0.806001 127.061 0.942001V25.66C126.449 25.966 125.735 26.102 124.851 26.102C123.899 26.102 123.151 25.898 122.641 25.49C122.131 25.082 121.825 24.436 121.757 23.518C120.737 25.422 119.003 26.34 116.555 26.34C114.311 26.34 112.543 25.524 111.285 23.858C110.027 22.192 109.415 19.948 109.415 17.126C109.415 15.29 109.687 13.658 110.265 12.23C110.809 10.836 111.625 9.748 112.713 8.966C113.801 8.218 115.059 7.81 116.555 7.81C119.071 7.81 120.805 9 121.723 11.312V3.594C121.723 2.608 121.961 1.86 122.505 1.316C123.049 0.772001 123.831 0.500001 124.851 0.500001C125.225 0.500001 125.633 0.568002 126.041 0.636001ZM120.737 21.41C121.383 20.798 121.723 20.084 121.723 19.268V15.256C121.723 14.304 121.383 13.522 120.771 12.876C120.125 12.23 119.343 11.89 118.391 11.89C117.303 11.89 116.419 12.366 115.773 13.284C115.127 14.202 114.821 15.46 114.821 17.092C114.821 18.724 115.127 20.016 115.773 20.934C116.419 21.852 117.303 22.294 118.459 22.294C119.343 22.294 120.091 22.022 120.737 21.41Z" fill="url(#paint0_linear_195_3476)"/>
<defs>
<linearGradient id="paint0_linear_195_3476" x1="63.5" y1="-7" x2="63.5" y2="34" gradientUnits="userSpaceOnUse">
<stop stop-color="#3E86FA"/>
<stop offset="1" stop-color="#0454D6"/>
</linearGradient>
</defs>
</svg>
