<svg width="223" height="163" viewBox="0 0 223 163" fill="none" xmlns="http://www.w3.org/2000/svg">
<path d="M76.6324 107.405L46.45 120.328V76.1526C46.45 59.4829 59.9627 45.9701 76.6324 45.9701V107.405Z" fill="url(#paint0_linear_585_2983)"/>
<g opacity="0.34">
<path d="M76.6324 45.9702C66.0006 45.9702 56.6597 51.4721 51.2828 59.7789C56.5577 55.266 63.4026 52.534 70.8885 52.534V109.864L76.6324 107.405V45.9702Z" fill="url(#paint1_linear_585_2983)"/>
</g>
<path d="M157.364 60.5899C157.364 30.9265 139.31 8.51285 111.995 1.96597C106.649 0.684991 100.955 0 94.9651 0H53.7309H46C47.352 17.1047 61.6507 30.5675 79.1034 30.5675C79.2254 30.5675 79.3464 30.5595 79.4684 30.5585C79.4764 30.7865 79.4894 31.0135 79.4914 31.2435V30.6245H93.3952C95.0611 30.6245 96.6751 30.7285 98.2331 30.9315C122.333 33.0674 141.232 53.2971 141.232 77.9516C141.232 93.6993 133.516 107.637 121.666 116.216C143.451 107.078 157.364 86.5395 157.364 60.5899Z" fill="url(#paint2_linear_585_2983)"/>
<path d="M157.48 60.5939C157.48 90.2574 139.426 112.671 112.111 119.218C106.765 120.499 101.071 121.184 95.0811 121.184H53.8459H46.115C47.467 104.079 61.7657 90.6164 79.2184 90.6164C79.3404 90.6164 79.4614 90.6244 79.5834 90.6254C79.5914 90.3974 79.6044 90.1704 79.6064 89.9404V90.5594H93.5101C95.1761 90.5594 96.7901 90.4554 98.3471 90.2524C122.447 88.1164 141.346 67.8868 141.346 43.2322C141.346 27.4845 133.63 13.5467 121.78 4.9679C143.566 14.1047 157.48 34.6444 157.48 60.5939Z" fill="url(#paint3_linear_585_2983)"/>
<path d="M123.439 6.24416C123.211 5.95717 122.978 5.67518 122.744 5.39418C122.423 5.25318 122.105 5.10618 121.781 4.97018C122.347 5.37818 122.893 5.81017 123.439 6.24416Z" fill="url(#paint4_linear_585_2983)"/>
<path d="M136.425 13.7666C144.915 24.0904 149.787 37.5482 149.787 52.9019C149.787 82.5654 131.733 104.979 104.418 111.526C99.0721 112.807 93.3782 113.492 87.3883 113.492H47.653C46.851 115.943 46.326 118.519 46.115 121.184H53.8459H95.0801C101.07 121.184 106.764 120.499 112.11 119.218C139.425 112.671 157.479 90.2563 157.479 60.5938C157.48 41.0711 149.603 24.6124 136.425 13.7666Z" fill="url(#paint5_linear_585_2983)"/>
<path d="M52.6526 154.184C51.3606 154.184 50.3746 153.912 49.6606 153.368C48.9466 152.824 48.6066 152.076 48.6066 151.09V129.704H57.7186C60.0306 129.704 62.0366 130.214 63.7366 131.2C65.4366 132.186 66.7286 133.58 67.6466 135.416C68.5306 137.252 69.0066 139.428 69.0066 141.944C69.0066 144.46 68.5306 146.636 67.6466 148.472C66.7626 150.308 65.4706 151.736 63.7706 152.722C62.0706 153.708 60.0986 154.184 57.8206 154.184H52.6526ZM57.7186 149.832C59.5546 149.832 60.9486 149.152 61.9686 147.792C62.9546 146.432 63.4646 144.46 63.4646 141.944C63.4646 139.428 62.9546 137.49 61.9346 136.13C60.9146 134.77 59.4526 134.056 57.6166 134.056H54.0466V149.832H57.7186ZM72.2685 131.098L74.6485 128.582L77.1645 130.656C77.4365 130.928 77.5725 131.2 77.5725 131.506C77.5725 131.812 77.4365 132.118 77.1645 132.424L74.7845 134.94L72.2685 132.866C71.9965 132.662 71.8605 132.356 71.8605 132.016C71.8605 131.744 71.9965 131.438 72.2685 131.098ZM72.0645 136.334H77.4025V153.844C77.1305 153.98 76.7905 154.116 76.3825 154.184C75.9745 154.252 75.5665 154.286 75.1925 154.286C74.1725 154.286 73.3905 154.048 72.8465 153.504C72.3025 152.96 72.0645 152.212 72.0645 151.192V136.334ZM97.2585 138.544C96.8505 138.952 96.3065 139.156 95.6265 139.156C95.2185 139.156 94.7425 139.088 94.1645 138.884C94.5725 139.224 94.8785 139.7 95.1165 140.278C95.3205 140.89 95.4565 141.57 95.4565 142.318C95.4565 144.188 94.7765 145.616 93.4165 146.636C92.0565 147.656 90.0505 148.234 87.4665 148.37C87.0925 148.404 86.7525 148.506 86.4125 148.642C86.0725 148.812 85.9365 149.05 85.9365 149.356C85.9365 149.9 86.3785 150.138 87.2965 150.138H91.4105C93.1445 150.138 94.4705 150.546 95.3545 151.328C96.2385 152.11 96.6805 153.232 96.6805 154.728C96.6805 155.952 96.2725 157.006 95.4905 157.924C94.6745 158.842 93.5525 159.556 92.0905 160.032C90.6285 160.542 88.9285 160.78 86.9905 160.78C84.8485 160.78 83.2165 160.508 82.0945 159.93C80.9385 159.352 80.3945 158.57 80.3945 157.55C80.3945 156.7 80.6665 156.088 81.2785 155.714C81.8905 155.374 82.7405 155.136 83.8965 155C83.8285 155.238 83.8285 155.442 83.8285 155.612C83.8285 156.36 84.1005 156.87 84.6445 157.21C85.1885 157.55 86.0725 157.72 87.2965 157.72C88.7245 157.72 89.7445 157.55 90.3905 157.176C91.0025 156.836 91.3425 156.36 91.3425 155.748C91.3425 155.17 91.1385 154.796 90.7985 154.626C90.4585 154.49 89.9485 154.388 89.3025 154.388H85.3925C84.1685 154.388 83.1825 154.184 82.4685 153.742C81.7545 153.334 81.4145 152.654 81.4145 151.702C81.4145 150.07 82.6385 148.846 85.1205 148.064C83.4545 147.69 82.1625 147.01 81.2785 146.024C80.3945 145.038 79.9525 143.814 79.9525 142.318C79.9525 141.094 80.2585 139.972 80.9385 139.02C81.5845 138.068 82.5025 137.32 83.7265 136.776C84.9165 136.266 86.3105 135.994 87.9085 135.994C88.7925 135.994 89.6085 136.096 90.4245 136.232C91.1045 136.334 91.5805 136.368 91.9205 136.368C92.9065 136.368 93.8245 136.198 94.6745 135.79C95.5245 135.416 96.1025 134.906 96.4425 134.26C96.8505 134.498 97.1905 134.838 97.4625 135.314C97.7345 135.79 97.8705 136.3 97.8705 136.844C97.8705 137.592 97.6665 138.136 97.2585 138.544ZM90.1865 142.284C90.1865 141.332 89.9485 140.618 89.5405 140.142C89.0985 139.666 88.4865 139.394 87.7045 139.394C86.8885 139.394 86.2425 139.632 85.8345 140.108C85.4265 140.584 85.2225 141.298 85.2225 142.216C85.2225 143.168 85.4265 143.882 85.8345 144.358C86.2425 144.834 86.8885 145.072 87.7045 145.072C89.3365 145.072 90.1865 144.154 90.1865 142.284ZM100.292 131.098L102.672 128.582L105.188 130.656C105.46 130.928 105.596 131.2 105.596 131.506C105.596 131.812 105.46 132.118 105.188 132.424L102.808 134.94L100.292 132.866C100.02 132.662 99.884 132.356 99.884 132.016C99.884 131.744 100.02 131.438 100.292 131.098ZM100.088 136.334H105.426V153.844C105.154 153.98 104.814 154.116 104.406 154.184C103.998 154.252 103.59 154.286 103.216 154.286C102.196 154.286 101.414 154.048 100.87 153.504C100.326 152.96 100.088 152.212 100.088 151.192V136.334ZM110.583 153.64C110.039 153.096 109.767 152.348 109.767 151.328V129.704H126.597V131.132C126.597 132.118 126.325 132.866 125.849 133.342C125.373 133.818 124.591 134.056 123.503 134.056H115.207V140.006H125.203V141.4C125.203 142.386 124.931 143.1 124.455 143.576C123.979 144.052 123.197 144.29 122.109 144.29H115.207V153.98C114.935 154.116 114.595 154.252 114.187 154.32C113.779 154.388 113.371 154.422 112.997 154.422C111.943 154.422 111.127 154.184 110.583 153.64ZM129.145 131.098L131.525 128.582L134.041 130.656C134.313 130.928 134.449 131.2 134.449 131.506C134.449 131.812 134.313 132.118 134.041 132.424L131.661 134.94L129.145 132.866C128.873 132.662 128.737 132.356 128.737 132.016C128.737 131.744 128.873 131.438 129.145 131.098ZM128.941 136.334H134.279V153.844C134.007 153.98 133.667 154.116 133.259 154.184C132.851 154.252 132.443 154.286 132.069 154.286C131.049 154.286 130.267 154.048 129.723 153.504C129.179 152.96 128.941 152.212 128.941 151.192V136.334ZM152.832 137.728C153.886 138.884 154.43 140.448 154.43 142.42V154.184H149.126V143.644C149.126 142.454 148.888 141.57 148.446 140.958C147.97 140.38 147.29 140.074 146.372 140.074C145.454 140.074 144.706 140.38 144.128 140.924C143.55 141.502 143.278 142.25 143.278 143.134V154.184H137.94V136.674C138.518 136.402 139.266 136.232 140.15 136.232C141.102 136.232 141.884 136.538 142.428 137.082C142.972 137.626 143.244 138.374 143.244 139.292V139.326C143.652 138.272 144.332 137.456 145.25 136.878C146.168 136.3 147.256 135.994 148.48 135.994C150.316 135.994 151.744 136.572 152.832 137.728ZM174.041 128.82C174.449 128.888 174.789 128.99 175.061 129.126V153.844C174.449 154.15 173.735 154.286 172.851 154.286C171.899 154.286 171.151 154.082 170.641 153.674C170.131 153.266 169.825 152.62 169.757 151.702C168.737 153.606 167.003 154.524 164.555 154.524C162.311 154.524 160.543 153.708 159.285 152.042C158.027 150.376 157.415 148.132 157.415 145.31C157.415 143.474 157.687 141.842 158.265 140.414C158.809 139.02 159.625 137.932 160.713 137.15C161.801 136.402 163.059 135.994 164.555 135.994C167.071 135.994 168.805 137.184 169.723 139.496V131.778C169.723 130.792 169.961 130.044 170.505 129.5C171.049 128.956 171.831 128.684 172.851 128.684C173.225 128.684 173.633 128.752 174.041 128.82ZM168.737 149.594C169.383 148.982 169.723 148.268 169.723 147.452V143.44C169.723 142.488 169.383 141.706 168.771 141.06C168.125 140.414 167.343 140.074 166.391 140.074C165.303 140.074 164.419 140.55 163.773 141.468C163.127 142.386 162.821 143.644 162.821 145.276C162.821 146.908 163.127 148.2 163.773 149.118C164.419 150.036 165.303 150.478 166.459 150.478C167.343 150.478 168.091 150.206 168.737 149.594Z" fill="url(#paint6_linear_585_2983)"/>
<defs>
<linearGradient id="paint0_linear_585_2983" x1="57.2277" y1="28.3393" x2="64.2019" y2="116.953" gradientUnits="userSpaceOnUse">
<stop stop-color="#0471F0"/>
<stop offset="0.1154" stop-color="#2E6AC9"/>
<stop offset="0.31" stop-color="#17376A"/>
<stop offset="0.5597" stop-color="#17376A"/>
<stop offset="0.852" stop-color="#1C3166"/>
<stop offset="1" stop-color="#222646"/>
</linearGradient>
<linearGradient id="paint1_linear_585_2983" x1="61.0223" y1="91.9096" x2="85.6372" y2="22.167" gradientUnits="userSpaceOnUse">
<stop offset="0.0223" stop-color="white" stop-opacity="0"/>
<stop offset="1" stop-color="white"/>
</linearGradient>
<linearGradient id="paint2_linear_585_2983" x1="119.921" y1="58.8435" x2="62.429" y2="20.7969" gradientUnits="userSpaceOnUse">
<stop offset="0.097" stop-color="#23509A"/>
<stop offset="0.6695" stop-color="#3A83F9"/>
</linearGradient>
<linearGradient id="paint3_linear_585_2983" x1="38.5717" y1="152.607" x2="189.298" y2="-7.38197" gradientUnits="userSpaceOnUse">
<stop offset="0.1671" stop-color="#103570"/>
<stop offset="0.785" stop-color="#619CF9"/>
<stop offset="0.905" stop-color="#FC2A2A"/>
<stop offset="0.9927" stop-color="#FC2A2A"/>
</linearGradient>
<linearGradient id="paint4_linear_585_2983" x1="122.49" y1="5.73367" x2="122.868" y2="5.33248" gradientUnits="userSpaceOnUse">
<stop offset="0.1671" stop-color="#911EAD"/>
<stop offset="0.9926" stop-color="#D62AFC"/>
</linearGradient>
<linearGradient id="paint5_linear_585_2983" x1="95.432" y1="110.906" x2="135.124" y2="15.2159" gradientUnits="userSpaceOnUse">
<stop offset="0.0223" stop-color="#0085FF" stop-opacity="0"/>
<stop offset="1" stop-color="#AFCDFF"/>
</linearGradient>
<linearGradient id="paint6_linear_585_2983" x1="111.5" y1="121.184" x2="111.5" y2="162.184" gradientUnits="userSpaceOnUse">
<stop stop-color="#3E86FA"/>
<stop offset="1" stop-color="#0454D6"/>
</linearGradient>
</defs>
</svg>
