<svg width="204" height="163" viewBox="0 0 204 163" fill="none" xmlns="http://www.w3.org/2000/svg">
<path d="M76.6327 107.405L46.4502 120.328V76.1526C46.4502 59.4829 59.963 45.9701 76.6327 45.9701V107.405Z" fill="url(#paint0_linear_585_2957)"/>
<g opacity="0.34">
<path d="M76.6325 45.9702C66.0007 45.9702 56.6599 51.4721 51.283 59.7789C56.5579 55.266 63.4027 52.534 70.8886 52.534V109.864L76.6325 107.405V45.9702Z" fill="url(#paint1_linear_585_2957)"/>
</g>
<path d="M157.364 60.5899C157.364 30.9265 139.31 8.51285 111.995 1.96597C106.649 0.684991 100.955 0 94.9651 0H53.7309H46C47.352 17.1047 61.6507 30.5675 79.1034 30.5675C79.2254 30.5675 79.3464 30.5595 79.4684 30.5585C79.4764 30.7865 79.4894 31.0135 79.4914 31.2435V30.6245H93.3952C95.0611 30.6245 96.6751 30.7285 98.2331 30.9315C122.333 33.0674 141.232 53.2971 141.232 77.9516C141.232 93.6993 133.516 107.637 121.666 116.216C143.451 107.078 157.364 86.5395 157.364 60.5899Z" fill="url(#paint2_linear_585_2957)"/>
<path d="M157.48 60.5939C157.48 90.2574 139.426 112.671 112.111 119.218C106.765 120.499 101.071 121.184 95.0811 121.184H53.8459H46.115C47.467 104.079 61.7657 90.6164 79.2184 90.6164C79.3404 90.6164 79.4614 90.6244 79.5834 90.6254C79.5914 90.3974 79.6044 90.1704 79.6064 89.9404V90.5594H93.5101C95.1761 90.5594 96.7901 90.4554 98.3471 90.2524C122.447 88.1164 141.346 67.8868 141.346 43.2322C141.346 27.4845 133.63 13.5467 121.78 4.9679C143.566 14.1047 157.48 34.6444 157.48 60.5939Z" fill="url(#paint3_linear_585_2957)"/>
<path d="M123.439 6.24416C123.211 5.95717 122.978 5.67518 122.744 5.39418C122.423 5.25318 122.105 5.10618 121.781 4.97018C122.347 5.37818 122.893 5.81017 123.439 6.24416Z" fill="url(#paint4_linear_585_2957)"/>
<path d="M136.425 13.7666C144.915 24.0904 149.787 37.5482 149.787 52.9019C149.787 82.5654 131.733 104.979 104.418 111.526C99.0721 112.807 93.3782 113.492 87.3883 113.492H47.653C46.851 115.943 46.326 118.519 46.115 121.184H53.8459H95.0801C101.07 121.184 106.764 120.499 112.11 119.218C139.425 112.671 157.479 90.2563 157.479 60.5938C157.48 41.0711 149.603 24.6124 136.425 13.7666Z" fill="url(#paint5_linear_585_2957)"/>
<path d="M53.0159 154.184C51.7239 154.184 50.7379 153.912 50.0239 153.368C49.3099 152.824 48.9699 152.076 48.9699 151.09V129.704H58.0819C60.3939 129.704 62.3999 130.214 64.0999 131.2C65.7999 132.186 67.0919 133.58 68.0099 135.416C68.8939 137.252 69.3699 139.428 69.3699 141.944C69.3699 144.46 68.8939 146.636 68.0099 148.472C67.1259 150.308 65.8339 151.736 64.1339 152.722C62.4339 153.708 60.4619 154.184 58.1839 154.184H53.0159ZM58.0819 149.832C59.9179 149.832 61.3119 149.152 62.3319 147.792C63.3179 146.432 63.8279 144.46 63.8279 141.944C63.8279 139.428 63.3179 137.49 62.2979 136.13C61.2779 134.77 59.8159 134.056 57.9799 134.056H54.4099V149.832H58.0819ZM72.6318 131.098L75.0118 128.582L77.5278 130.656C77.7998 130.928 77.9358 131.2 77.9358 131.506C77.9358 131.812 77.7998 132.118 77.5278 132.424L75.1478 134.94L72.6318 132.866C72.3598 132.662 72.2238 132.356 72.2238 132.016C72.2238 131.744 72.3598 131.438 72.6318 131.098ZM72.4278 136.334H77.7658V153.844C77.4938 153.98 77.1538 154.116 76.7458 154.184C76.3378 154.252 75.9298 154.286 75.5558 154.286C74.5358 154.286 73.7538 154.048 73.2098 153.504C72.6658 152.96 72.4278 152.212 72.4278 151.192V136.334ZM97.6218 138.544C97.2138 138.952 96.6698 139.156 95.9898 139.156C95.5818 139.156 95.1058 139.088 94.5278 138.884C94.9358 139.224 95.2418 139.7 95.4798 140.278C95.6838 140.89 95.8198 141.57 95.8198 142.318C95.8198 144.188 95.1398 145.616 93.7798 146.636C92.4198 147.656 90.4138 148.234 87.8298 148.37C87.4558 148.404 87.1158 148.506 86.7758 148.642C86.4358 148.812 86.2998 149.05 86.2998 149.356C86.2998 149.9 86.7418 150.138 87.6598 150.138H91.7738C93.5078 150.138 94.8338 150.546 95.7178 151.328C96.6018 152.11 97.0438 153.232 97.0438 154.728C97.0438 155.952 96.6358 157.006 95.8538 157.924C95.0378 158.842 93.9158 159.556 92.4538 160.032C90.9918 160.542 89.2918 160.78 87.3538 160.78C85.2118 160.78 83.5798 160.508 82.4578 159.93C81.3018 159.352 80.7578 158.57 80.7578 157.55C80.7578 156.7 81.0298 156.088 81.6418 155.714C82.2538 155.374 83.1038 155.136 84.2598 155C84.1918 155.238 84.1918 155.442 84.1918 155.612C84.1918 156.36 84.4638 156.87 85.0078 157.21C85.5518 157.55 86.4358 157.72 87.6598 157.72C89.0878 157.72 90.1078 157.55 90.7538 157.176C91.3658 156.836 91.7058 156.36 91.7058 155.748C91.7058 155.17 91.5018 154.796 91.1618 154.626C90.8218 154.49 90.3118 154.388 89.6658 154.388H85.7558C84.5318 154.388 83.5458 154.184 82.8318 153.742C82.1178 153.334 81.7778 152.654 81.7778 151.702C81.7778 150.07 83.0018 148.846 85.4838 148.064C83.8178 147.69 82.5258 147.01 81.6418 146.024C80.7578 145.038 80.3158 143.814 80.3158 142.318C80.3158 141.094 80.6218 139.972 81.3018 139.02C81.9478 138.068 82.8658 137.32 84.0898 136.776C85.2798 136.266 86.6738 135.994 88.2718 135.994C89.1558 135.994 89.9718 136.096 90.7878 136.232C91.4678 136.334 91.9438 136.368 92.2838 136.368C93.2698 136.368 94.1878 136.198 95.0378 135.79C95.8878 135.416 96.4658 134.906 96.8058 134.26C97.2138 134.498 97.5538 134.838 97.8258 135.314C98.0978 135.79 98.2338 136.3 98.2338 136.844C98.2338 137.592 98.0298 138.136 97.6218 138.544ZM90.5498 142.284C90.5498 141.332 90.3118 140.618 89.9038 140.142C89.4618 139.666 88.8498 139.394 88.0678 139.394C87.2518 139.394 86.6058 139.632 86.1978 140.108C85.7898 140.584 85.5858 141.298 85.5858 142.216C85.5858 143.168 85.7898 143.882 86.1978 144.358C86.6058 144.834 87.2518 145.072 88.0678 145.072C89.6998 145.072 90.5498 144.154 90.5498 142.284ZM100.655 131.098L103.035 128.582L105.551 130.656C105.823 130.928 105.959 131.2 105.959 131.506C105.959 131.812 105.823 132.118 105.551 132.424L103.171 134.94L100.655 132.866C100.383 132.662 100.247 132.356 100.247 132.016C100.247 131.744 100.383 131.438 100.655 131.098ZM100.451 136.334H105.789V153.844C105.517 153.98 105.177 154.116 104.769 154.184C104.361 154.252 103.953 154.286 103.579 154.286C102.559 154.286 101.777 154.048 101.233 153.504C100.689 152.96 100.451 152.212 100.451 151.192V136.334Z" fill="url(#paint6_linear_585_2957)"/>
<defs>
<linearGradient id="paint0_linear_585_2957" x1="57.2279" y1="28.3393" x2="64.2022" y2="116.953" gradientUnits="userSpaceOnUse">
<stop stop-color="#0471F0"/>
<stop offset="0.1154" stop-color="#2E6AC9"/>
<stop offset="0.31" stop-color="#17376A"/>
<stop offset="0.5597" stop-color="#17376A"/>
<stop offset="0.852" stop-color="#1C3166"/>
<stop offset="1" stop-color="#222646"/>
</linearGradient>
<linearGradient id="paint1_linear_585_2957" x1="61.0224" y1="91.9096" x2="85.6374" y2="22.167" gradientUnits="userSpaceOnUse">
<stop offset="0.0223" stop-color="white" stop-opacity="0"/>
<stop offset="1" stop-color="white"/>
</linearGradient>
<linearGradient id="paint2_linear_585_2957" x1="119.921" y1="58.8435" x2="62.429" y2="20.7969" gradientUnits="userSpaceOnUse">
<stop offset="0.097" stop-color="#23509A"/>
<stop offset="0.6695" stop-color="#3A83F9"/>
</linearGradient>
<linearGradient id="paint3_linear_585_2957" x1="38.5717" y1="152.607" x2="189.298" y2="-7.38197" gradientUnits="userSpaceOnUse">
<stop offset="0.1671" stop-color="#103570"/>
<stop offset="0.785" stop-color="#619CF9"/>
<stop offset="0.905" stop-color="#FC2A2A"/>
<stop offset="0.9927" stop-color="#FC2A2A"/>
</linearGradient>
<linearGradient id="paint4_linear_585_2957" x1="122.49" y1="5.73367" x2="122.868" y2="5.33248" gradientUnits="userSpaceOnUse">
<stop offset="0.1671" stop-color="#911EAD"/>
<stop offset="0.9926" stop-color="#D62AFC"/>
</linearGradient>
<linearGradient id="paint5_linear_585_2957" x1="95.432" y1="110.906" x2="135.124" y2="15.2159" gradientUnits="userSpaceOnUse">
<stop offset="0.0223" stop-color="#0085FF" stop-opacity="0"/>
<stop offset="1" stop-color="#AFCDFF"/>
</linearGradient>
<linearGradient id="paint6_linear_585_2957" x1="77" y1="121.184" x2="77" y2="162.184" gradientUnits="userSpaceOnUse">
<stop stop-color="#3E86FA"/>
<stop offset="1" stop-color="#0454D6"/>
</linearGradient>
</defs>
</svg>
