<svg width="158" height="163" viewBox="0 0 158 163" fill="none" xmlns="http://www.w3.org/2000/svg">
<path d="M76.6327 107.405L46.4502 120.328V76.1526C46.4502 59.4829 59.963 45.9701 76.6327 45.9701V107.405Z" fill="url(#paint0_linear_585_2945)"/>
<g opacity="0.34">
<path d="M76.6325 45.9702C66.0007 45.9702 56.6599 51.4721 51.283 59.7789C56.5579 55.266 63.4027 52.534 70.8886 52.534V109.864L76.6325 107.405V45.9702Z" fill="url(#paint1_linear_585_2945)"/>
</g>
<path d="M157.364 60.5899C157.364 30.9265 139.31 8.51285 111.995 1.96597C106.649 0.684991 100.955 0 94.9651 0H53.7309H46C47.352 17.1047 61.6507 30.5675 79.1034 30.5675C79.2254 30.5675 79.3464 30.5595 79.4684 30.5585C79.4764 30.7865 79.4894 31.0135 79.4914 31.2435V30.6245H93.3952C95.0611 30.6245 96.6751 30.7285 98.2331 30.9315C122.333 33.0674 141.232 53.2971 141.232 77.9516C141.232 93.6993 133.516 107.637 121.666 116.216C143.451 107.078 157.364 86.5395 157.364 60.5899Z" fill="url(#paint2_linear_585_2945)"/>
<path d="M157.48 60.5939C157.48 90.2574 139.426 112.671 112.111 119.218C106.765 120.499 101.071 121.184 95.0811 121.184H53.8459H46.115C47.467 104.079 61.7657 90.6164 79.2184 90.6164C79.3404 90.6164 79.4614 90.6244 79.5834 90.6254C79.5914 90.3974 79.6044 90.1704 79.6064 89.9404V90.5594H93.5101C95.1761 90.5594 96.7901 90.4554 98.3471 90.2524C122.447 88.1164 141.346 67.8868 141.346 43.2322C141.346 27.4845 133.63 13.5467 121.78 4.9679C143.566 14.1047 157.48 34.6444 157.48 60.5939Z" fill="url(#paint3_linear_585_2945)"/>
<path d="M123.439 6.24416C123.211 5.95717 122.978 5.67518 122.744 5.39418C122.423 5.25318 122.105 5.10618 121.781 4.97018C122.347 5.37818 122.893 5.81017 123.439 6.24416Z" fill="url(#paint4_linear_585_2945)"/>
<path d="M136.425 13.7666C144.915 24.0904 149.787 37.5482 149.787 52.9019C149.787 82.5654 131.733 104.979 104.418 111.526C99.0721 112.807 93.3782 113.492 87.3883 113.492H47.653C46.851 115.943 46.326 118.519 46.115 121.184H53.8459H95.0801C101.07 121.184 106.764 120.499 112.11 119.218C139.425 112.671 157.479 90.2563 157.479 60.5938C157.48 41.0711 149.603 24.6124 136.425 13.7666Z" fill="url(#paint5_linear_585_2945)"/>
<defs>
<linearGradient id="paint0_linear_585_2945" x1="57.2279" y1="28.3393" x2="64.2022" y2="116.953" gradientUnits="userSpaceOnUse">
<stop stop-color="#0471F0"/>
<stop offset="0.1154" stop-color="#2E6AC9"/>
<stop offset="0.31" stop-color="#17376A"/>
<stop offset="0.5597" stop-color="#17376A"/>
<stop offset="0.852" stop-color="#1C3166"/>
<stop offset="1" stop-color="#222646"/>
</linearGradient>
<linearGradient id="paint1_linear_585_2945" x1="61.0224" y1="91.9096" x2="85.6374" y2="22.167" gradientUnits="userSpaceOnUse">
<stop offset="0.0223" stop-color="white" stop-opacity="0"/>
<stop offset="1" stop-color="white"/>
</linearGradient>
<linearGradient id="paint2_linear_585_2945" x1="119.921" y1="58.8435" x2="62.429" y2="20.7969" gradientUnits="userSpaceOnUse">
<stop offset="0.097" stop-color="#23509A"/>
<stop offset="0.6695" stop-color="#3A83F9"/>
</linearGradient>
<linearGradient id="paint3_linear_585_2945" x1="38.5717" y1="152.607" x2="189.298" y2="-7.38197" gradientUnits="userSpaceOnUse">
<stop offset="0.1671" stop-color="#103570"/>
<stop offset="0.785" stop-color="#619CF9"/>
<stop offset="0.905" stop-color="#FC2A2A"/>
<stop offset="0.9927" stop-color="#FC2A2A"/>
</linearGradient>
<linearGradient id="paint4_linear_585_2945" x1="122.49" y1="5.73367" x2="122.868" y2="5.33248" gradientUnits="userSpaceOnUse">
<stop offset="0.1671" stop-color="#911EAD"/>
<stop offset="0.9926" stop-color="#D62AFC"/>
</linearGradient>
<linearGradient id="paint5_linear_585_2945" x1="95.432" y1="110.906" x2="135.124" y2="15.2159" gradientUnits="userSpaceOnUse">
<stop offset="0.0223" stop-color="#0085FF" stop-opacity="0"/>
<stop offset="1" stop-color="#AFCDFF"/>
</linearGradient>
</defs>
</svg>
