<svg width="113" height="164" viewBox="0 0 113 164" fill="none" xmlns="http://www.w3.org/2000/svg">
<path d="M9.51117 156.3C8.47757 156.3 7.68877 156.082 7.11757 155.647C6.54637 155.212 6.27437 154.613 6.27437 153.825V136.716H13.564C15.4136 136.716 17.0184 137.124 18.3784 137.913C19.7384 138.701 20.772 139.817 21.5064 141.285C22.2136 142.754 22.5944 144.495 22.5944 146.508C22.5944 148.521 22.2136 150.261 21.5064 151.73C20.7992 153.199 19.7656 154.341 18.4056 155.13C17.0456 155.919 15.468 156.3 13.6456 156.3H9.51117ZM13.564 152.818C15.0328 152.818 16.148 152.274 16.964 151.186C17.7528 150.098 18.1608 148.521 18.1608 146.508C18.1608 144.495 17.7528 142.945 16.9368 141.857C16.1208 140.769 14.9512 140.197 13.4824 140.197H10.6264V152.818H13.564ZM25.2039 137.831L27.1079 135.818L29.1207 137.477C29.3383 137.695 29.4471 137.913 29.4471 138.157C29.4471 138.402 29.3383 138.647 29.1207 138.892L27.2167 140.905L25.2039 139.245C24.9863 139.082 24.8775 138.837 24.8775 138.565C24.8775 138.348 24.9863 138.103 25.2039 137.831ZM25.0407 142.02H29.3111V156.028C29.0935 156.137 28.8215 156.245 28.4951 156.3C28.1687 156.354 27.8423 156.381 27.5431 156.381C26.7271 156.381 26.1015 156.191 25.6663 155.756C25.2311 155.321 25.0407 154.722 25.0407 153.906V142.02ZM45.1959 143.788C44.8695 144.114 44.4343 144.277 43.8903 144.277C43.5639 144.277 43.1831 144.223 42.7207 144.06C43.0471 144.332 43.2919 144.713 43.4823 145.175C43.6455 145.665 43.7543 146.209 43.7543 146.807C43.7543 148.303 43.2103 149.445 42.1223 150.261C41.0343 151.077 39.4295 151.54 37.3623 151.649C37.0631 151.676 36.7911 151.757 36.5191 151.866C36.2471 152.002 36.1383 152.193 36.1383 152.437C36.1383 152.873 36.4919 153.063 37.2263 153.063H40.5175C41.9047 153.063 42.9655 153.389 43.6727 154.015C44.3799 154.641 44.7335 155.538 44.7335 156.735C44.7335 157.714 44.4071 158.557 43.7815 159.292C43.1287 160.026 42.2311 160.597 41.0615 160.978C39.8919 161.386 38.5319 161.577 36.9815 161.577C35.2679 161.577 33.9623 161.359 33.0647 160.897C32.1399 160.434 31.7047 159.809 31.7047 158.993C31.7047 158.313 31.9223 157.823 32.4119 157.524C32.9015 157.252 33.5815 157.061 34.5063 156.953C34.4519 157.143 34.4519 157.306 34.4519 157.442C34.4519 158.041 34.6695 158.449 35.1047 158.721C35.5399 158.993 36.2471 159.129 37.2263 159.129C38.3687 159.129 39.1847 158.993 39.7015 158.693C40.1911 158.421 40.4631 158.041 40.4631 157.551C40.4631 157.089 40.2999 156.789 40.0279 156.653C39.7559 156.545 39.3479 156.463 38.8311 156.463H35.7031C34.7239 156.463 33.9351 156.3 33.3639 155.946C32.7927 155.62 32.5207 155.076 32.5207 154.314C32.5207 153.009 33.4999 152.029 35.4855 151.404C34.1527 151.105 33.1191 150.561 32.4119 149.772C31.7047 148.983 31.3511 148.004 31.3511 146.807C31.3511 145.828 31.5959 144.93 32.1399 144.169C32.6567 143.407 33.3911 142.809 34.3703 142.373C35.3223 141.965 36.4375 141.748 37.7159 141.748C38.4231 141.748 39.0759 141.829 39.7287 141.938C40.2727 142.02 40.6535 142.047 40.9255 142.047C41.7143 142.047 42.4487 141.911 43.1287 141.585C43.8087 141.285 44.2711 140.877 44.5431 140.361C44.8695 140.551 45.1415 140.823 45.3591 141.204C45.5767 141.585 45.6855 141.993 45.6855 142.428C45.6855 143.026 45.5223 143.461 45.1959 143.788ZM39.5383 146.78C39.5383 146.018 39.3479 145.447 39.0215 145.066C38.6679 144.685 38.1783 144.468 37.5527 144.468C36.8999 144.468 36.3831 144.658 36.0567 145.039C35.7303 145.42 35.5671 145.991 35.5671 146.725C35.5671 147.487 35.7303 148.058 36.0567 148.439C36.3831 148.82 36.8999 149.01 37.5527 149.01C38.8583 149.01 39.5383 148.276 39.5383 146.78ZM47.6226 137.831L49.5266 135.818L51.5394 137.477C51.757 137.695 51.8658 137.913 51.8658 138.157C51.8658 138.402 51.757 138.647 51.5394 138.892L49.6354 140.905L47.6226 139.245C47.405 139.082 47.2962 138.837 47.2962 138.565C47.2962 138.348 47.405 138.103 47.6226 137.831ZM47.4594 142.02H51.7298V156.028C51.5122 156.137 51.2402 156.245 50.9138 156.3C50.5874 156.354 50.261 156.381 49.9618 156.381C49.1458 156.381 48.5202 156.191 48.085 155.756C47.6498 155.321 47.4594 154.722 47.4594 153.906V142.02ZM55.8553 155.865C55.4201 155.429 55.2025 154.831 55.2025 154.015V136.716H68.6665V137.858C68.6665 138.647 68.4489 139.245 68.0681 139.626C67.6873 140.007 67.0617 140.197 66.1913 140.197H59.5545V144.957H67.5513V146.073C67.5513 146.861 67.3337 147.433 66.9529 147.813C66.5721 148.194 65.9465 148.385 65.0761 148.385H59.5545V156.137C59.3369 156.245 59.0649 156.354 58.7385 156.409C58.4121 156.463 58.0857 156.49 57.7865 156.49C56.9433 156.49 56.2905 156.3 55.8553 155.865ZM70.7054 137.831L72.6094 135.818L74.6222 137.477C74.8398 137.695 74.9486 137.913 74.9486 138.157C74.9486 138.402 74.8398 138.647 74.6222 138.892L72.7182 140.905L70.7054 139.245C70.4878 139.082 70.379 138.837 70.379 138.565C70.379 138.348 70.4878 138.103 70.7054 137.831ZM70.5422 142.02H74.8126V156.028C74.595 156.137 74.323 156.245 73.9966 156.3C73.6702 156.354 73.3438 156.381 73.0446 156.381C72.2286 156.381 71.603 156.191 71.1678 155.756C70.7326 155.321 70.5422 154.722 70.5422 153.906V142.02ZM89.6549 143.135C90.4981 144.06 90.9333 145.311 90.9333 146.889V156.3H86.6901V147.868C86.6901 146.916 86.4997 146.209 86.1461 145.719C85.7653 145.257 85.2213 145.012 84.4869 145.012C83.7525 145.012 83.1541 145.257 82.6917 145.692C82.2293 146.154 82.0117 146.753 82.0117 147.46V156.3H77.7413V142.292C78.2037 142.074 78.8021 141.938 79.5093 141.938C80.2709 141.938 80.8965 142.183 81.3317 142.618C81.7669 143.053 81.9845 143.652 81.9845 144.386V144.413C82.3109 143.57 82.8549 142.917 83.5893 142.455C84.3237 141.993 85.1941 141.748 86.1733 141.748C87.6421 141.748 88.7845 142.21 89.6549 143.135ZM106.622 136.009C106.948 136.063 107.22 136.145 107.438 136.253V156.028C106.948 156.273 106.377 156.381 105.67 156.381C104.908 156.381 104.31 156.218 103.902 155.892C103.494 155.565 103.249 155.049 103.194 154.314C102.378 155.837 100.991 156.572 99.0327 156.572C97.2375 156.572 95.8231 155.919 94.8167 154.586C93.8103 153.253 93.3207 151.458 93.3207 149.201C93.3207 147.732 93.5383 146.426 94.0007 145.284C94.4359 144.169 95.0887 143.298 95.9591 142.673C96.8295 142.074 97.8359 141.748 99.0327 141.748C101.046 141.748 102.433 142.7 103.167 144.549V138.375C103.167 137.586 103.358 136.988 103.793 136.553C104.228 136.117 104.854 135.9 105.67 135.9C105.969 135.9 106.295 135.954 106.622 136.009ZM102.378 152.628C102.895 152.138 103.167 151.567 103.167 150.914V147.705C103.167 146.943 102.895 146.317 102.406 145.801C101.889 145.284 101.263 145.012 100.502 145.012C99.6311 145.012 98.9239 145.393 98.4071 146.127C97.8903 146.861 97.6455 147.868 97.6455 149.173C97.6455 150.479 97.8903 151.513 98.4071 152.247C98.9239 152.981 99.6311 153.335 100.556 153.335C101.263 153.335 101.862 153.117 102.378 152.628Z" fill="#3A83F9"/>
<path d="M31.5971 108.107L1.41406 121.03V76.8539C1.41406 60.1839 14.9271 46.6709 31.5971 46.6709V108.107Z" fill="url(#paint0_linear_195_3753)"/>
<g opacity="0.34">
<path d="M31.5966 46.6709C20.9646 46.6709 11.6236 52.1729 6.24658 60.4799C11.5216 55.9669 18.3666 53.2349 25.8526 53.2349V110.566L31.5966 108.107V46.6709Z" fill="url(#paint1_linear_195_3753)"/>
</g>
<path d="M112.33 61.2912C112.33 31.6272 94.2759 9.2132 66.9599 2.6662C61.6139 1.3852 55.9199 0.700195 49.9299 0.700195H8.69487H0.963867C2.31587 17.8052 16.6149 31.2682 34.0679 31.2682C34.1899 31.2682 34.3109 31.2602 34.4329 31.2592C34.4409 31.4872 34.4539 31.7142 34.4559 31.9442V31.3252H48.3599C50.0259 31.3252 51.6399 31.4292 53.1979 31.6322C77.2979 33.7682 96.1979 53.9982 96.1979 78.6532C96.1979 94.4012 88.4819 108.339 76.6309 116.918C98.4169 107.78 112.33 87.2412 112.33 61.2912Z" fill="url(#paint2_linear_195_3753)"/>
<path d="M112.446 61.295C112.446 90.959 94.3916 113.373 67.0756 119.92C61.7296 121.201 56.0356 121.886 50.0456 121.886H8.80962H1.07861C2.43061 104.781 16.7296 91.318 34.1826 91.318C34.3046 91.318 34.4256 91.326 34.5476 91.327C34.5556 91.099 34.5686 90.872 34.5706 90.642V91.261H48.4746C50.1406 91.261 51.7546 91.157 53.3116 90.954C77.4116 88.818 96.3116 68.588 96.3116 43.933C96.3116 28.185 88.5956 14.247 76.7446 5.66797C98.5316 14.805 112.446 35.345 112.446 61.295Z" fill="url(#paint3_linear_195_3753)"/>
<path d="M78.4041 6.9449C78.1761 6.6579 77.9431 6.3759 77.7091 6.0949C77.3881 5.9539 77.0701 5.8069 76.7461 5.6709C77.3121 6.0789 77.8581 6.5109 78.4041 6.9449Z" fill="url(#paint4_linear_195_3753)"/>
<path d="M91.3911 14.4678C99.8811 24.7918 104.753 38.2498 104.753 53.6038C104.753 83.2678 86.6991 105.682 59.3831 112.229C54.0371 113.51 48.3431 114.195 42.3531 114.195H2.6171C1.8151 116.646 1.2901 119.222 1.0791 121.887H8.8101H50.0451C56.0351 121.887 61.7291 121.202 67.0751 119.921C94.3911 113.374 112.445 90.9588 112.445 61.2958C112.446 41.7728 104.569 25.3138 91.3911 14.4678Z" fill="url(#paint5_linear_195_3753)"/>
<defs>
<linearGradient id="paint0_linear_195_3753" x1="12.192" y1="29.0398" x2="19.1664" y2="117.655" gradientUnits="userSpaceOnUse">
<stop stop-color="#0471F0"/>
<stop offset="0.1154" stop-color="#2E6AC9"/>
<stop offset="0.31" stop-color="#17376A"/>
<stop offset="0.5597" stop-color="#17376A"/>
<stop offset="0.852" stop-color="#1C3166"/>
<stop offset="1" stop-color="#222646"/>
</linearGradient>
<linearGradient id="paint1_linear_195_3753" x1="15.9862" y1="92.6112" x2="40.6016" y2="22.8673" gradientUnits="userSpaceOnUse">
<stop offset="0.0223" stop-color="white" stop-opacity="0"/>
<stop offset="1" stop-color="white"/>
</linearGradient>
<linearGradient id="paint2_linear_195_3753" x1="74.8867" y1="59.5448" x2="17.3932" y2="21.4975" gradientUnits="userSpaceOnUse">
<stop offset="0.097" stop-color="#23509A"/>
<stop offset="0.6695" stop-color="#3A83F9"/>
</linearGradient>
<linearGradient id="paint3_linear_195_3753" x1="-6.46479" y1="153.309" x2="144.264" y2="-6.68212" gradientUnits="userSpaceOnUse">
<stop offset="0.1671" stop-color="#103570"/>
<stop offset="0.785" stop-color="#619CF9"/>
<stop offset="0.905" stop-color="#FC2A2A"/>
<stop offset="0.9927" stop-color="#FC2A2A"/>
</linearGradient>
<linearGradient id="paint4_linear_195_3753" x1="77.4555" y1="6.4344" x2="77.8335" y2="6.0332" gradientUnits="userSpaceOnUse">
<stop offset="0.1671" stop-color="#911EAD"/>
<stop offset="0.9926" stop-color="#D62AFC"/>
</linearGradient>
<linearGradient id="paint5_linear_195_3753" x1="50.397" y1="111.609" x2="90.0893" y2="15.9171" gradientUnits="userSpaceOnUse">
<stop offset="0.0223" stop-color="#0085FF" stop-opacity="0"/>
<stop offset="1" stop-color="#AFCDFF"/>
</linearGradient>
</defs>
</svg>
