<svg width="120" height="120" viewBox="0 0 120 120" fill="none" xmlns="http://www.w3.org/2000/svg">
<rect width="120" height="120" rx="60" fill="white"/>
<path fill-rule="evenodd" clip-rule="evenodd" d="M43.3333 39.1667C43.3333 34.7464 45.0893 30.5072 48.2149 27.3816C51.3405 24.2559 55.5797 22.5 60 22.5C64.4203 22.5 68.6595 24.2559 71.7851 27.3816C74.9107 30.5072 76.6667 34.7464 76.6667 39.1667C76.6667 43.5869 74.9107 47.8262 71.7851 50.9518C68.6595 54.0774 64.4203 55.8333 60 55.8333C55.5797 55.8333 51.3405 54.0774 48.2149 50.9518C45.0893 47.8262 43.3333 43.5869 43.3333 39.1667ZM43.3333 64.1667C37.808 64.1667 32.5089 66.3616 28.6019 70.2686C24.6949 74.1756 22.5 79.4747 22.5 85C22.5 88.3152 23.817 91.4946 26.1612 93.8388C28.5054 96.183 31.6848 97.5 35 97.5H85C88.3152 97.5 91.4946 96.183 93.8388 93.8388C96.183 91.4946 97.5 88.3152 97.5 85C97.5 79.4747 95.3051 74.1756 91.3981 70.2686C87.4911 66.3616 82.192 64.1667 76.6667 64.1667H43.3333Z" fill="#BA7E80"/>
</svg>
